<svg height="512pt" viewBox="0 0 512 512" width="512pt" xmlns="http://www.w3.org/2000/svg"><path d="m512 256c0 141.386719-114.613281 256-256 256s-256-114.613281-256-256 114.613281-256 256-256 256 114.613281 256 256zm0 0" fill="#00c379"/><path d="m512 256.085938-138.289062-137.90625c-9.945313-10.476563-24-17.015626-39.582032-17.015626-30.152344 0-54.59375 24.441407-54.59375 54.59375 0 1.207032.054688 2.402344.132813 3.59375l-114.148438 55.851563c-9.644531-8.578125-22.339843-13.796875-36.261719-13.796875-30.152343 0-54.59375 24.441406-54.59375 54.589844 0 15.242187 6.253907 29.019531 16.328126 38.921875l212.824218 212.605469c118.503906-22.394532 208.140625-126.433594 208.183594-251.4375zm0 0" fill="#00a753"/><path d="m334.128906 301.648438c-13.921875 0-26.621094 5.21875-36.261718 13.796874l-114.148438-55.851562c.074219-1.1875.128906-2.382812.128906-3.59375s-.050781-2.40625-.128906-3.59375l114.148438-55.851562c9.640624 8.578124 22.339843 13.796874 36.257812 13.796874 30.152344 0 54.59375-24.441406 54.59375-54.589843 0-30.152344-24.441406-54.59375-54.59375-54.59375-30.148438 0-54.589844 24.441406-54.589844 54.59375 0 1.207031.054688 2.402343.128906 3.59375l-114.148437 55.851562c-9.640625-8.578125-22.339844-13.796875-36.257813-13.796875-30.152343 0-54.59375 24.441406-54.59375 54.589844 0 30.152344 24.441407 54.59375 54.59375 54.59375 13.917969 0 26.617188-5.222656 36.257813-13.796875l114.148437 55.851563c-.074218 1.1875-.128906 2.382812-.128906 3.59375 0 30.148437 24.441406 54.589843 54.589844 54.589843 30.152344 0 54.59375-24.441406 54.59375-54.589843 0-30.152344-24.441406-54.59375-54.589844-54.59375zm0 0" fill="#fefefe"/><g fill="#fff5cb"><path d="m297.867188 196.554688-47.433594 23.203124v-46.101562l29.230468-14.304688c-.074218-1.183593-.125-2.386718-.125-3.597656 0-30.144531 24.4375-54.589844 54.59375-54.589844 30.144532 0 54.589844 24.445313 54.589844 54.589844 0 30.15625-24.445312 54.59375-54.589844 54.59375-13.929687 0-26.617187-5.214844-36.265624-13.792968zm0 0"/><path d="m388.722656 356.242188c0 30.148437-24.445312 54.59375-54.589844 54.59375-30.15625 0-54.59375-24.445313-54.59375-54.59375 0-1.210938.050782-2.410157.125-3.59375l-29.230468-14.308594v-46.097656l47.433594 23.203124c9.648437-8.578124 22.335937-13.792968 36.261718-13.792968 30.148438 0 54.59375 24.4375 54.59375 54.589844zm0 0"/></g></svg>